<svg width="620" height="620" viewBox="0 0 620 620" fill="none" xmlns="http://www.w3.org/2000/svg">
<path d="M443.547 512.244C428.899 504.452 414.675 490.305 401.852 468.095L401.419 468.345L400.986 468.595C413.809 490.805 418.949 510.196 418.373 526.779C417.797 543.353 411.51 557.158 401.407 568.209C381.182 590.334 345.633 601.448 309.999 601.448C274.366 601.448 238.817 590.334 218.592 568.209C208.489 557.158 202.202 543.353 201.626 526.779C201.049 510.196 206.189 490.805 219.013 468.595L218.58 468.345L218.147 468.095C205.323 490.305 191.1 504.452 176.452 512.243C161.81 520.032 146.711 521.489 132.088 518.266C102.815 511.812 75.4161 486.582 57.5996 455.723C39.783 424.864 31.6325 388.52 40.6806 359.942C45.2002 345.668 54.0123 333.32 68.0778 324.534C82.1502 315.744 101.514 310.5 127.16 310.5V310V309.5C101.514 309.5 82.1502 304.256 68.0778 295.466C54.0123 286.68 45.2002 274.332 40.6806 260.057C31.6325 231.48 39.783 195.136 57.5996 164.277C75.4161 133.418 102.815 108.188 132.088 101.734C146.711 98.5109 161.81 99.9684 176.452 107.756C191.1 115.548 205.323 129.695 218.147 151.905L218.58 151.655L219.013 151.405C206.189 129.195 201.049 109.804 201.626 93.2218C202.202 76.6479 208.489 62.8427 218.592 51.7911C238.817 29.6664 274.366 18.5532 309.999 18.5532C345.633 18.5532 381.182 29.6664 401.407 51.7911C411.51 62.8427 417.797 76.6479 418.373 93.2218C418.949 109.804 413.809 129.195 400.986 151.405L401.419 151.655L401.852 151.905C414.675 129.695 428.899 115.548 443.547 107.756C458.189 99.9684 473.288 98.5109 487.91 101.734C517.184 108.188 544.583 133.418 562.399 164.277C580.216 195.136 588.366 231.48 579.318 260.057C574.799 274.332 565.987 286.68 551.921 295.466C537.849 304.256 518.485 309.5 492.839 309.5V310V310.5C518.485 310.5 537.849 315.744 551.921 324.534C565.987 333.32 574.799 345.668 579.318 359.943C588.366 388.521 580.216 424.864 562.399 455.723C544.583 486.583 517.184 511.813 487.91 518.266C473.288 521.49 458.189 520.032 443.547 512.244ZM182.448 304.418C182.448 376.904 241.21 435.665 313.695 435.665C386.182 435.665 444.943 376.904 444.943 304.418C444.943 231.931 386.182 173.17 313.695 173.17C241.21 173.17 182.448 231.931 182.448 304.418Z" fill="#FFDFBA" stroke="black"/>
<path d="M182.955 304.424C182.955 321.594 186.337 338.595 192.908 354.458C199.478 370.321 209.109 384.735 221.25 396.876C233.391 409.017 247.805 418.648 263.668 425.218C279.531 431.789 296.532 435.171 313.702 435.171C330.872 435.171 347.874 431.789 363.737 425.218C379.6 418.648 394.014 409.017 406.155 396.876C418.296 384.735 427.927 370.321 434.497 354.458C441.068 338.595 444.45 321.594 444.45 304.424C444.45 269.747 430.675 236.491 406.155 211.971C381.635 187.451 348.379 173.676 313.702 173.676C279.026 173.676 245.77 187.451 221.25 211.971C196.73 236.491 182.955 269.747 182.955 304.424Z" fill="#FAC231"/>
<path d="M563.731 310C589.646 292.734 597.632 267.4 600.086 253.49C611.081 191.138 563.478 108.69 503.983 87.0346C490.709 82.203 464.777 76.451 436.865 90.263C434.87 59.1867 416.924 39.6022 406.104 30.5226C357.6 -10.1722 262.399 -10.1722 213.897 30.5226C203.077 39.6022 185.129 59.1855 183.136 90.2617C155.226 76.4498 129.291 82.203 116.018 87.0346C56.5223 108.687 8.91915 191.139 19.9157 253.49C22.369 267.399 30.354 292.734 56.2704 310C30.3552 327.265 22.369 352.602 19.9157 366.509C8.92036 428.862 56.5235 511.312 116.018 532.965C129.292 537.799 155.226 543.548 183.136 529.736C185.13 560.813 203.078 580.397 213.897 589.477C238.147 609.824 274.073 619.998 309.999 619.998C345.926 619.998 381.853 609.824 406.104 589.477C416.924 580.397 434.872 560.814 436.865 529.738C464.775 543.552 490.709 537.796 503.983 532.965C563.479 511.31 611.082 428.86 600.086 366.509C597.632 352.6 589.647 327.266 563.731 310ZM491.56 498.837C463.29 509.131 438.247 495.817 417.144 459.263C412.131 450.581 401.024 447.602 392.338 452.617C386.511 455.982 383.253 462.086 383.255 468.365C383.258 471.444 384.041 474.565 385.691 477.423C406.794 513.974 405.806 542.312 382.757 561.654C347.402 591.323 272.6 591.323 237.241 561.654C214.191 542.313 213.204 513.974 234.305 477.423C235.9 474.671 236.74 471.546 236.74 468.365C236.743 462.087 233.486 455.982 227.658 452.617C218.976 447.603 207.868 450.579 202.852 459.263C181.749 495.813 156.714 509.129 128.436 498.837C85.0629 483.051 47.6631 418.274 55.6795 372.818C60.9035 343.185 84.9539 328.159 127.16 328.159C137.189 328.159 145.319 320.027 145.319 310C145.319 299.972 137.189 291.84 127.16 291.84C84.9539 291.84 60.9059 276.815 55.6795 247.181C47.6643 201.725 85.0629 136.948 128.436 121.162C156.71 110.865 181.749 124.184 202.852 160.736C207.865 169.42 218.972 172.396 227.658 167.383C233.485 164.018 236.741 157.913 236.74 151.634C236.74 148.555 235.954 145.434 234.305 142.577C213.202 106.026 214.19 77.6874 237.241 58.3451C272.601 28.6783 347.398 28.6747 382.757 58.3451C405.808 77.6862 406.794 106.026 385.691 142.577C384.498 144.642 383.723 146.922 383.412 149.286C383.1 151.651 383.257 154.053 383.874 156.357C384.492 158.661 385.557 160.82 387.009 162.712C388.462 164.604 390.272 166.191 392.338 167.383C401.026 172.398 412.129 169.422 417.144 160.736C438.247 124.185 463.287 110.876 491.56 121.162C534.936 136.948 572.333 201.726 564.317 247.181C559.093 276.814 535.042 291.84 492.838 291.84C482.81 291.84 474.678 299.972 474.678 310C474.678 320.027 482.81 328.159 492.838 328.159C535.041 328.159 559.092 343.184 564.317 372.818C572.335 418.273 534.936 483.051 491.56 498.837Z" fill="#FAC6E3"/>
<path d="M313.695 155.511C231.588 155.511 164.789 222.31 164.789 304.418C164.789 386.525 231.588 453.324 313.695 453.324C395.803 453.324 462.602 386.525 462.602 304.418C462.602 222.31 395.802 155.511 313.695 155.511ZM313.695 417.006C251.614 417.006 201.107 366.499 201.107 304.418C201.107 242.336 251.614 191.829 313.695 191.829C375.776 191.829 426.283 242.336 426.283 304.418C426.283 366.499 375.774 417.006 313.695 417.006Z" fill="#FADF39"/>
<path d="M247.298 326.898L247.313 326.898C257.338 327.1 265.625 319.134 265.827 309.109C266.03 299.083 258.058 290.789 248.031 290.587C238.004 290.384 229.711 298.35 229.509 308.376C229.307 318.401 237.272 326.695 247.298 326.898ZM255.971 346.009C249.508 353.68 250.488 365.135 258.159 371.596C272.182 383.41 290.014 390.119 308.375 390.489C352.758 391.385 389.593 356.006 390.489 311.624C391.384 267.243 356.005 230.407 311.624 229.511C301.598 229.309 293.304 237.274 293.102 247.3C292.899 257.326 300.865 265.62 310.891 265.822C335.25 266.314 354.669 286.532 354.178 310.892C353.686 335.251 333.467 354.67 309.108 354.178C298.882 353.972 289.356 350.391 281.558 343.821C273.89 337.362 262.43 338.336 255.971 346.009Z" fill="#FFD9AB"/>
</svg>
